<svg width="960" height="862" viewBox="0 0 960 862" fill="none" xmlns="http://www.w3.org/2000/svg">
<path fill-rule="evenodd" clip-rule="evenodd" d="M480.001 0L720.001 164.252L960.001 328.505L868.307 594.817L776.612 861.13H480.001H183.39L91.6953 594.817L0.000976562 328.505L240.001 164.252L480.001 0Z" fill="#F7D915"/>
<path fill-rule="evenodd" clip-rule="evenodd" d="M480.001 39.0698L698.473 188.173L916.945 338.073L833.224 580.465L749.503 822.06H480.001H210.499L126.779 580.465L43.0576 338.073L261.529 188.173L480.001 39.0698Z" fill="#016316"/>
<path fill-rule="evenodd" clip-rule="evenodd" d="M314.155 642.658C308.573 643.455 303.789 645.847 299.803 649.834C285.45 623.522 271.896 610.764 258.341 609.169C247.975 608.372 241.597 609.169 231.231 615.548C217.676 624.319 203.324 617.143 208.108 600.399C195.351 590.831 200.135 570.897 220.068 572.492C231.231 558.14 248.773 567.708 247.975 584.452C247.178 592.425 252.759 598.804 262.328 603.588C266.314 605.183 266.314 603.588 263.922 598.804C251.962 574.884 241.597 560.532 232.826 558.14C223.258 555.747 216.082 556.545 211.298 560.532C193.756 572.492 179.404 556.545 188.175 542.193C178.607 531.03 184.188 515.88 201.73 519.867C204.919 504.718 225.65 509.502 228.042 525.449C229.636 538.206 224.055 541.395 235.218 554.153C239.205 558.14 240.799 555.747 238.407 549.369C236.015 542.99 236.015 533.422 232.826 520.664C228.042 503.92 219.271 493.555 207.311 491.163C201.73 489.568 197.743 493.555 194.553 495.15C182.593 501.528 167.444 487.176 179.404 475.216C169.836 463.256 179.404 448.904 196.945 457.674C207.311 447.309 224.055 455.282 218.474 471.229C215.284 480.797 216.082 487.973 220.068 491.163C223.258 493.555 225.65 496.744 228.839 499.136C228.042 483.987 228.042 470.432 228.839 459.269C228.839 455.282 226.447 450.498 221.663 443.322C212.892 428.97 208.906 436.944 194.553 433.754C181.796 430.565 177.809 414.618 188.972 407.442C180.201 393.09 195.351 379.535 210.5 393.09C223.258 385.914 236.015 397.076 231.231 412.226C226.447 422.591 220.068 420.997 223.258 433.754C224.055 436.146 225.65 439.336 228.042 442.525C229.636 445.714 230.434 444.917 230.434 441.728C232.826 427.375 234.421 416.213 236.813 407.442C238.407 402.658 237.61 398.671 235.218 394.684C232.029 389.9 230.434 385.116 228.839 381.927C224.852 376.346 218.474 373.954 211.298 372.359C200.932 369.967 198.54 351.628 212.095 348.439C208.906 334.086 227.244 326.113 237.61 339.668C251.165 337.276 257.543 353.223 247.975 361.196C240.002 368.372 236.015 377.143 239.205 389.9C240.799 395.482 243.191 395.482 243.989 389.9C245.583 378.738 250.367 368.372 255.949 358.007C258.341 354.02 257.543 349.236 256.746 346.047C255.151 338.87 254.354 333.289 253.557 329.302C252.759 323.721 248.773 319.734 243.191 317.342C229.636 312.558 232.826 295.017 246.381 294.219C247.975 275.88 272.693 277.475 273.49 292.625C287.045 292.625 288.64 305.382 280.666 310.963C270.301 318.14 263.922 324.518 263.125 330.897C262.328 340.465 262.328 343.655 264.72 341.262C275.085 329.302 283.856 319.734 290.234 312.558C293.424 309.369 295.019 303.787 295.019 297.409C295.816 286.246 292.627 279.867 283.856 274.286C271.098 266.312 275.085 246.379 292.627 247.973C299.005 232.824 318.141 236.013 317.344 251.96C330.899 256.744 329.304 268.704 319.736 273.488C306.181 280.664 299.803 288.638 299.803 296.611C299.803 301.395 299.803 301.395 302.195 298.206C312.56 287.841 322.926 279.07 331.696 271.894C334.886 270.299 335.683 267.907 335.683 263.92C336.48 252.758 335.683 246.379 333.291 245.581C314.952 236.811 323.723 214.485 345.251 218.472C353.225 200.93 375.55 209.701 369.171 228.04C383.524 232.027 378.739 253.555 365.185 254.352C355.617 254.352 352.427 252.758 348.44 257.542C342.062 265.515 339.67 267.907 342.859 266.312C356.414 260.731 369.969 253.555 385.118 247.176C391.497 244.784 393.092 237.608 393.092 232.824C393.092 218.472 415.417 216.877 419.404 228.837C437.743 226.445 439.337 247.973 425.783 253.555C425.783 267.11 409.836 271.894 404.254 263.123C398.673 255.15 397.876 249.568 384.321 253.555C370.766 258.339 356.414 266.312 341.264 276.678C366.779 279.07 372.361 274.286 375.55 267.907C381.131 255.947 401.065 258.339 398.673 272.691C415.417 275.88 410.633 291.827 398.673 294.219C400.268 306.977 379.537 307.774 374.753 297.409C364.387 273.488 328.507 276.678 305.384 303.787C301.397 307.774 302.195 310.963 306.979 310.166C320.533 308.571 328.507 299.003 333.291 289.435C336.48 281.462 349.238 281.462 353.225 291.827C371.563 290.233 372.361 314.153 355.617 314.153C357.211 323.721 342.062 329.302 334.886 321.329C325.318 309.369 298.208 311.761 284.653 327.708C275.085 338.073 269.504 346.844 268.706 354.817C279.869 352.425 286.248 346.047 287.842 335.681C290.234 321.329 308.573 314.153 313.357 327.708C331.696 327.708 332.494 342.857 320.533 349.236C322.128 360.399 304.587 367.575 299.005 361.196C288.64 350.033 269.504 355.615 256.746 372.359C251.962 380.332 249.57 390.698 247.178 402.658C259.138 397.874 264.72 390.698 263.125 379.535C262.328 375.548 263.125 372.359 264.72 369.967C270.301 361.993 279.869 361.196 283.856 367.575C299.005 359.601 310.168 377.94 298.208 386.711C303.789 397.874 290.234 411.429 278.274 403.455C272.693 399.468 269.504 397.874 263.125 400.266C248.773 405.847 241.597 413.821 240.002 426.578C238.407 433.754 236.813 441.728 236.015 452.093C246.381 445.714 250.367 439.336 247.975 433.754C245.583 427.375 243.989 423.389 245.583 420.199C248.773 412.226 253.557 410.631 260.733 415.415C274.288 403.455 288.64 416.213 280.666 429.767C287.045 435.349 283.856 444.12 275.085 447.309C268.706 449.701 263.125 448.106 259.138 446.512C255.949 444.917 253.557 444.917 251.165 446.512C240.002 453.688 235.218 461.661 236.015 468.837C236.015 474.419 234.421 483.987 236.015 495.15C236.813 499.934 240.002 500.731 242.394 495.947C247.178 488.771 247.178 481.595 243.989 476.013C237.61 462.458 247.178 452.89 259.138 456.877C274.288 443.322 291.032 459.269 279.072 471.229C288.64 476.013 281.464 489.568 271.098 488.771C260.733 487.176 254.354 488.771 248.773 495.15C240.799 503.123 236.813 508.704 240.002 528.638C243.989 552.558 247.975 559.734 251.165 550.963C255.151 539.801 255.949 534.219 251.962 531.827C236.813 520.664 238.407 507.11 253.557 504.718C261.53 487.973 281.464 493.555 282.261 509.502C295.019 511.894 291.829 533.422 278.274 534.219C268.706 535.017 264.72 536.611 260.733 543.787C255.151 554.95 252.759 562.924 259.138 575.681C272.693 601.993 278.274 611.561 279.869 603.588C280.666 596.412 279.072 591.628 274.288 587.641C257.543 571.694 260.733 558.937 276.68 559.734C283.058 538.206 305.384 543.787 302.992 562.126C318.141 565.316 316.547 579.668 299.803 588.439C290.234 593.223 285.45 598.007 284.653 605.98C284.653 611.561 287.045 616.346 292.627 621.927C300.6 629.9 306.979 637.076 314.155 642.658Z" fill="#8C9F33"/>
<path fill-rule="evenodd" clip-rule="evenodd" d="M652.227 653.023C654.619 646.645 654.619 642.658 652.227 640.266C657.011 635.482 661.795 630.698 665.782 625.914V625.116C646.646 622.724 643.456 594.02 657.809 577.276C658.606 579.668 657.809 582.06 657.809 585.249C657.011 590.831 660.201 595.615 663.39 599.601C670.566 607.575 672.161 614.751 668.174 621.13C668.174 621.927 668.971 621.927 668.971 622.724C672.161 617.94 676.147 613.156 679.337 608.372C664.985 608.372 657.809 580.465 664.985 562.924C666.579 564.518 666.579 566.91 667.377 570.1C667.377 575.681 670.566 580.465 673.755 583.655C680.134 590.033 682.526 597.209 681.729 604.385V605.183C684.918 601.196 687.31 596.412 690.5 592.425C689.702 591.628 689.702 590.831 688.905 590.033C673.755 590.831 666.579 562.126 674.553 543.787C676.147 546.179 676.147 548.571 676.147 551.761C676.945 557.342 679.337 561.329 683.323 565.316C689.702 571.694 692.094 578.87 690.5 586.047C690.5 586.844 691.297 587.641 692.094 589.236C694.486 585.249 696.878 580.465 699.27 576.478C698.473 574.884 697.676 573.289 697.676 572.492C682.526 573.289 672.958 545.382 680.134 527.043C681.729 528.638 681.729 531.03 682.526 535.017C683.323 540.598 686.513 544.585 689.702 547.774C696.878 553.355 699.27 560.532 698.473 567.708C698.473 569.302 700.068 570.897 700.865 572.492C704.054 567.708 706.446 562.126 708.041 556.545C708.041 555.748 707.244 554.95 706.446 554.153C692.094 556.545 680.134 530.233 685.715 511.096C687.31 512.691 687.31 515.083 688.108 518.272C689.702 523.854 692.892 527.043 696.878 530.233C704.054 535.814 708.041 542.193 707.244 549.369C708.041 550.963 708.838 551.761 709.636 553.355C712.028 546.977 714.42 540.598 716.014 534.219C716.014 533.422 716.014 533.422 715.217 533.422C700.865 537.409 686.513 512.691 688.905 492.758C691.297 494.352 691.297 496.744 692.892 499.934C694.486 504.718 698.473 507.907 702.46 510.299C711.23 515.083 715.217 521.462 716.014 528.638C716.014 529.435 716.812 530.233 716.812 531.03C718.407 524.651 720.001 519.07 720.799 512.691C720.799 511.894 720.001 511.894 719.204 511.096C705.649 516.678 689.702 491.96 690.5 471.229C692.094 472.027 692.892 474.419 694.486 477.608C696.878 483.189 700.865 486.379 704.852 488.771C713.622 492.758 717.609 498.339 719.204 506.312C720.001 507.11 720.799 507.907 721.596 509.502C722.393 503.123 723.191 496.744 723.988 491.163C723.988 490.365 723.988 489.568 723.988 489.568C723.191 488.771 723.191 488.771 722.393 487.973C709.636 495.15 691.297 472.027 689.702 451.296C692.094 452.093 692.892 454.485 694.486 457.674C697.676 462.459 701.662 465.648 706.446 467.243C715.217 470.432 720.001 476.013 722.393 483.189C722.393 483.987 723.191 484.784 723.988 485.581C724.785 479.203 724.785 473.621 724.785 467.243C723.191 466.445 722.393 465.648 721.596 464.851C709.636 473.621 688.108 452.89 684.121 432.16C686.513 432.957 688.108 435.349 689.702 438.538C693.689 442.525 697.676 444.917 702.46 446.512C711.23 448.106 717.609 453.688 720.001 460.864C720.799 461.661 722.393 462.459 723.988 463.256C723.988 457.674 723.191 452.093 722.393 445.714C710.433 456.08 685.715 436.146 679.337 413.821C681.729 414.618 683.323 417.01 685.715 420.199C690.5 424.983 695.284 426.578 700.068 427.375C709.636 428.97 716.812 433.754 720.799 440.93C720.799 441.728 721.596 441.728 722.393 442.525C721.596 436.944 720.001 431.362 719.204 424.983C718.407 424.983 717.609 424.983 717.609 424.186C705.649 435.349 680.134 416.213 672.958 395.482C675.35 395.482 676.945 397.874 679.337 401.063C684.121 405.05 688.905 406.645 694.486 407.442C704.054 408.239 711.23 412.226 715.217 419.402C716.014 420.199 716.812 420.997 718.407 421.794C716.812 415.415 715.217 409.037 712.825 403.455C712.028 402.658 712.028 402.658 711.23 401.861C700.865 414.618 672.958 397.874 664.187 377.143C666.579 377.94 668.174 380.332 671.363 382.724C676.147 386.711 681.729 387.508 686.513 387.508C696.081 387.508 704.054 391.495 708.838 397.874C709.636 398.671 710.433 398.671 712.028 399.468C709.636 392.292 706.446 385.914 704.054 379.535C695.284 393.09 665.782 381.927 653.024 362.791C655.416 363.588 657.809 365.183 660.998 366.777C666.579 369.967 672.161 369.967 676.945 369.169C686.513 367.575 694.486 369.967 700.865 375.548C700.865 375.548 701.662 376.346 702.46 376.346C700.068 371.562 697.676 366.777 695.284 361.993C686.513 375.548 657.011 363.588 645.051 345.249C647.443 345.249 649.835 346.844 653.024 349.236C658.606 351.628 663.39 352.425 668.971 351.628C678.539 350.033 686.513 352.425 692.094 358.007H692.892C690.5 353.223 687.31 348.439 684.121 343.655C675.35 354.817 646.646 346.844 633.888 331.694C636.28 331.694 638.672 333.289 641.862 334.086C647.443 336.478 653.024 336.478 657.809 334.884C666.579 333.289 674.553 334.086 680.134 338.073C677.742 334.884 675.35 331.694 672.958 328.505C672.161 328.505 671.363 328.505 671.363 328.505C664.187 341.263 633.091 333.289 619.536 318.14C621.928 317.342 624.32 318.937 627.51 320.532C633.091 322.924 638.672 322.126 643.456 321.329C653.024 318.937 660.998 320.532 667.377 325.316C668.174 325.316 669.769 325.316 670.566 325.316C667.377 320.532 663.39 316.545 659.403 311.761C657.011 311.761 655.416 311.761 653.822 311.761C648.24 323.721 618.739 320.532 604.387 308.571C606.779 307.774 609.171 308.571 612.36 309.369C617.941 310.964 622.725 310.166 627.51 308.571C636.28 305.382 643.456 306.179 649.835 309.369C651.43 310.166 653.822 309.369 656.214 309.369C653.822 306.179 651.43 303.787 648.24 301.395C646.646 301.395 644.254 302.193 643.456 302.193C633.888 308.571 601.995 308.571 596.413 301.395C598.805 300.598 600.4 299.801 603.589 300.598C609.171 300.598 611.563 298.206 615.549 295.814C623.523 291.827 633.091 295.017 639.47 297.409C640.267 297.409 643.456 299.003 645.848 298.206C641.862 295.017 638.672 291.827 633.888 287.841C632.294 288.638 630.699 289.435 629.902 289.435C621.131 296.611 589.237 298.206 582.858 290.233C585.25 289.435 586.845 289.435 590.034 289.435C595.616 289.435 598.008 286.246 601.995 283.854C609.171 279.867 618.739 282.259 625.915 284.651C626.712 284.651 629.104 285.449 630.699 285.449C625.117 280.665 618.739 275.88 613.157 271.894C612.36 271.894 611.563 271.894 610.765 272.691C608.373 284.651 580.466 287.043 564.519 278.272C566.912 277.475 569.304 277.475 572.493 277.475C577.277 278.272 582.061 276.678 586.048 274.286C593.224 269.502 600.4 268.704 607.576 271.096C608.373 271.096 609.171 270.299 609.968 270.299C605.981 267.907 601.995 264.718 598.008 262.326C596.413 263.123 594.818 263.123 593.224 263.123C590.034 275.083 560.533 275.88 544.586 266.312C546.978 266.312 549.37 266.312 552.559 266.312C558.141 267.11 562.925 265.515 566.912 263.92C575.682 259.934 582.858 259.136 590.034 261.528C590.832 261.528 592.426 260.731 594.021 260.731C590.832 259.136 587.642 256.744 584.453 255.15C583.656 255.15 582.858 254.352 581.264 254.352C579.669 254.352 578.074 255.15 577.277 255.15C574.088 262.326 548.573 262.326 535.018 255.947C536.613 255.15 539.005 255.947 541.397 255.947C546.181 256.744 550.965 255.947 554.154 254.352C561.33 251.96 568.506 251.96 574.088 253.555C574.885 253.555 576.48 253.555 578.074 252.758C575.682 251.96 573.29 251.163 572.493 250.366C564.519 252.758 556.546 251.163 549.37 244.784C545.383 241.595 540.599 239.203 534.22 239.203C531.031 239.203 527.842 239.203 526.247 238.405C544.586 228.837 574.885 233.621 576.48 248.771C578.074 249.568 580.466 250.366 583.656 251.163C583.656 250.366 584.453 249.568 584.453 248.771C584.453 248.771 583.656 247.973 583.656 247.176C577.277 245.581 573.29 240 572.493 231.229C572.493 226.445 570.898 222.459 566.912 219.269C564.519 217.674 562.925 216.877 562.127 214.485C581.264 215.282 598.008 233.621 587.642 247.973C587.642 247.973 587.642 248.771 588.44 248.771C589.237 248.771 590.034 249.568 591.629 249.568C594.818 251.163 597.211 253.555 600.4 255.15C599.603 253.555 599.603 252.758 599.603 252.758C594.021 249.568 592.426 243.189 594.021 236.013C595.616 231.229 595.616 227.243 592.426 224.053C590.832 221.661 590.034 220.067 590.034 218.472C605.981 224.053 615.549 244.784 602.792 254.352C602.792 255.15 603.589 255.947 603.589 257.542C608.373 259.934 612.36 263.123 617.144 266.312C617.144 265.515 617.144 263.92 616.347 263.123C611.563 259.136 610.765 252.758 613.157 244.784C614.752 240 614.752 236.013 612.36 232.027C610.765 229.635 609.968 227.243 609.968 225.648C625.915 232.824 633.091 256.744 619.536 265.515C620.333 266.312 620.333 267.11 620.333 268.704C625.117 271.894 629.104 275.88 633.888 279.07C633.888 278.272 633.888 278.272 633.091 277.475C629.104 272.691 628.307 265.515 631.496 255.947C633.091 251.163 633.091 246.379 631.496 241.595C629.902 239.203 629.104 236.811 629.104 234.419C645.051 243.987 650.632 271.096 636.28 279.867C636.28 280.665 636.28 281.462 636.28 281.462C640.267 284.651 644.254 288.638 648.24 291.827C648.24 289.435 649.038 287.841 648.24 287.043C644.254 282.259 643.456 275.083 648.24 267.11C649.835 262.326 651.43 257.542 649.835 252.758C649.038 250.366 647.443 247.973 648.24 245.581C664.187 256.744 667.377 283.057 651.43 290.233C651.43 291.03 651.43 292.625 651.43 295.017C654.619 298.206 658.606 301.395 661.795 305.382C661.795 304.585 661.795 303.787 661.795 303.787C657.809 298.206 657.809 291.03 663.39 281.462C665.782 276.678 667.377 271.894 665.782 266.312C664.985 263.92 664.187 261.528 664.985 259.136C681.729 271.096 683.323 299.003 664.985 306.179C664.985 306.977 664.985 307.774 664.985 308.571C669.769 313.356 673.755 318.14 677.742 322.924C677.742 322.924 677.742 322.126 677.742 321.329C673.755 315.748 674.553 308.571 680.134 299.801C682.526 295.017 684.918 289.435 683.323 284.651C682.526 281.462 681.729 279.07 682.526 276.678C698.473 289.435 699.27 318.14 680.931 324.518C680.931 325.316 680.931 326.113 680.931 326.91C684.121 331.694 687.31 335.681 690.5 340.465C691.297 338.87 691.297 338.073 691.297 337.276C687.31 330.897 688.905 323.721 695.284 315.748C698.473 311.761 700.865 306.977 700.068 302.193C699.27 299.003 698.473 296.611 699.27 294.219C714.42 307.774 712.825 334.884 694.486 340.465C693.689 341.263 693.689 342.857 692.892 344.452C694.486 346.047 695.284 348.439 696.878 350.033C698.473 353.223 700.068 355.615 701.662 358.804C702.46 357.209 703.257 356.412 703.257 355.615C700.865 349.236 703.257 342.857 710.433 336.478C714.42 333.289 717.609 330.1 717.609 325.316C717.609 322.126 716.812 319.734 718.407 318.14C729.569 332.492 723.988 357.209 705.649 358.804C704.852 359.601 704.852 361.196 704.054 361.993C706.446 367.575 709.636 373.156 712.028 378.738C713.622 377.143 713.622 375.548 714.42 374.751C712.028 368.372 714.42 362.791 721.596 356.412C725.583 353.223 728.772 349.236 729.569 344.452C729.569 342.06 729.569 339.668 730.367 338.073C741.529 353.223 734.353 377.94 716.014 377.94C715.217 379.535 714.42 381.13 713.622 382.724C716.014 388.306 718.407 393.887 720.001 399.468C721.596 397.874 722.393 397.076 722.393 396.279C720.799 389.9 723.988 383.522 731.164 378.738C735.151 375.548 738.34 372.359 739.137 367.575C739.137 364.385 739.137 362.791 740.732 361.196C749.503 377.143 740.732 400.266 723.988 399.468C723.191 401.063 722.393 401.861 721.596 403.455C723.191 409.037 724.785 414.618 725.583 420.199C727.177 419.402 727.975 417.807 728.772 417.01C727.177 410.631 731.164 405.05 739.137 400.266C743.124 397.874 746.313 394.684 747.111 389.9C747.908 387.508 748.706 385.116 750.3 383.522C756.679 400.266 746.313 423.389 729.569 420.997C728.772 421.794 727.975 423.389 727.177 424.186C727.975 429.767 728.772 434.552 729.569 439.336C730.367 439.336 731.164 438.538 731.164 437.741C731.164 431.362 735.948 426.578 743.921 423.389C748.706 421.794 752.692 419.402 754.287 414.618C755.882 412.226 755.882 409.834 758.274 409.037C762.26 426.578 747.908 447.309 731.164 441.728C731.164 442.525 730.367 442.525 730.367 443.322C731.164 450.498 731.961 458.472 731.961 465.648C733.556 464.851 734.353 464.053 734.353 463.256C734.353 456.877 739.137 452.093 747.908 448.106C752.692 446.512 757.476 443.322 759.071 438.538C759.868 436.146 760.666 433.754 762.26 432.957C768.639 450.498 753.49 471.229 735.151 467.243C734.353 468.04 733.556 469.635 731.961 470.432C731.961 477.608 731.961 483.987 731.164 491.163C733.556 490.365 734.353 488.771 735.151 487.973C735.151 482.392 739.935 477.608 749.503 475.216C754.287 473.621 758.274 471.229 760.666 467.243C761.463 464.851 762.26 462.459 764.652 461.661C768.639 478.405 753.49 496.744 735.948 491.96C734.353 492.758 732.759 494.352 731.164 495.15C730.367 500.731 729.569 506.312 728.772 511.894C731.164 511.096 731.961 510.299 732.759 509.502C734.353 503.123 739.137 499.934 748.706 498.339C753.49 497.542 757.476 495.947 760.666 491.96C762.26 489.568 763.058 487.973 764.652 487.176C767.044 503.92 748.706 520.664 732.759 512.691C731.961 513.488 730.367 515.083 727.975 515.88C727.177 520.664 726.38 526.246 724.785 531.03C727.177 531.03 727.975 530.233 728.772 529.435C731.164 523.057 736.745 519.867 746.313 519.867C751.098 519.867 755.882 518.272 759.071 515.083C760.666 512.691 762.26 510.299 763.855 510.299C762.26 529.435 741.529 545.382 727.975 533.422C727.177 534.219 725.583 535.017 723.191 535.814C721.596 542.193 719.204 548.571 716.812 554.95C718.407 554.95 719.204 554.153 720.001 554.153C722.393 546.977 728.772 543.787 739.137 543.787C744.719 543.787 750.3 542.193 753.49 538.206C755.882 535.814 757.476 534.219 759.868 533.422C757.476 554.153 734.353 570.1 718.407 558.14C717.609 558.937 716.812 558.937 715.217 559.734C713.622 564.518 711.23 568.505 709.636 573.289C709.636 573.289 709.636 573.289 710.433 572.492C713.622 566.91 720.799 563.721 731.164 565.316C736.745 566.113 741.529 566.113 746.313 562.924C748.706 560.532 750.3 558.937 752.692 558.937C747.908 578.87 722.393 590.831 708.838 577.276C708.041 577.276 708.041 577.276 707.244 577.276C705.649 582.06 703.257 586.047 700.865 590.831C700.865 590.033 700.865 590.033 701.662 590.033C705.649 584.452 712.825 582.857 722.393 586.047C727.975 586.844 732.759 587.641 737.543 584.452C739.935 582.857 741.529 582.06 743.921 582.06C736.745 600.399 710.433 609.169 699.27 594.02H698.473C695.284 598.804 692.094 604.385 688.905 609.169C690.5 609.169 691.297 609.169 692.094 608.372C696.878 602.791 704.054 601.196 713.622 603.588C719.204 605.183 723.988 605.98 728.772 602.791C731.164 601.196 733.556 599.601 735.948 600.399C727.975 618.738 701.662 627.508 690.5 612.359C688.905 612.359 688.108 612.359 686.513 613.156C684.121 615.548 682.526 617.94 680.134 621.13C684.918 619.535 691.297 620.332 697.676 623.522C703.257 625.914 708.838 626.711 714.42 624.319C717.609 622.724 720.001 621.13 723.191 621.927C712.028 641.063 683.323 647.442 671.363 632.292C665.782 639.468 659.403 645.847 652.227 653.023Z" fill="#E4A108"/>
<path fill-rule="evenodd" clip-rule="evenodd" d="M480.001 147.508L495.15 192.159H544.585L504.718 219.269L519.868 263.92L480.001 236.81L440.134 263.92L455.283 220.066L415.416 192.159H464.851L480.001 147.508Z" fill="#EEBC03"/>
<path fill-rule="evenodd" clip-rule="evenodd" d="M480.001 39.0698L698.473 188.173L916.945 338.073L833.224 580.465L749.503 822.06H480.001H210.499L126.779 580.465L43.0576 338.073L261.529 188.173L480.001 39.0698ZM214.486 676.146C195.35 680.133 183.39 689.701 177.808 704.851C201.729 701.661 222.46 705.648 239.204 716.013C259.935 729.568 272.692 730.366 279.071 719.203C282.26 712.824 275.882 703.256 260.732 689.701C252.759 683.322 253.556 675.349 262.327 668.173L282.26 651.429C242.393 633.09 205.715 629.103 173.822 639.469C192.161 649.037 205.715 661.794 214.486 676.146ZM745.516 676.146C764.652 680.133 777.41 689.701 782.991 704.851C759.071 701.661 738.34 705.648 721.596 716.013C700.865 729.568 687.31 730.366 681.729 719.203C677.742 712.824 684.121 703.256 699.27 689.701C707.244 683.322 706.446 675.349 698.473 668.173L677.742 651.429C718.406 633.09 754.287 629.103 786.18 639.469C768.639 649.037 755.084 661.794 745.516 676.146ZM657.808 705.648L678.539 724.784C681.729 728.771 687.31 730.366 693.689 730.366C694.486 730.366 695.283 730.366 696.081 730.366C703.257 729.568 712.028 726.379 723.19 719.203C731.164 713.621 739.935 710.432 750.3 708.837C759.868 707.243 771.031 706.445 782.194 708.04H785.383L747.111 818.871H480.001H212.891L174.619 708.04H177.808C189.769 706.445 200.134 707.243 210.499 708.837C220.068 710.432 228.838 713.621 236.812 719.203C247.975 726.379 256.745 729.568 263.921 730.366C264.719 730.366 265.516 730.366 266.313 730.366C273.489 730.366 278.274 728.771 281.463 724.784L302.194 705.648C318.141 716.811 337.277 727.176 357.21 735.15C393.888 750.299 435.35 758.273 480.001 758.273C524.652 758.273 566.911 750.299 602.792 735.15C623.523 727.176 641.862 716.811 657.808 705.648ZM786.978 704.851L786.18 703.256C782.991 695.282 778.207 688.904 771.828 683.322C766.247 679.336 759.071 676.146 751.097 673.754C755.084 668.173 759.868 663.389 764.652 658.605C771.828 652.226 779.004 647.442 787.775 641.861L794.951 638.671L786.978 635.482C771.031 630.698 753.489 629.103 735.151 630.698C716.812 633.09 696.878 638.671 676.147 648.239L674.553 649.037L639.469 619.535C637.875 617.94 630.699 610.764 620.333 619.535C601.197 635.482 579.669 648.239 555.749 657.01C531.828 665.781 506.313 669.768 480.001 669.768C453.689 669.768 428.174 665.781 405.051 657.01C380.333 648.239 358.805 635.482 339.669 619.535C330.101 610.764 322.127 617.94 320.533 619.535L285.45 649.037L283.855 648.239C263.124 638.671 243.988 633.09 225.649 630.698C206.513 629.103 188.971 630.698 173.024 635.482L165.051 638.671L172.227 641.861C180.998 647.442 188.971 652.226 195.35 658.605C200.134 663.389 204.918 668.173 208.905 673.754C200.931 676.146 194.553 679.336 188.971 683.322C181.795 688.904 177.011 695.282 173.822 703.256V704.851L129.968 578.871L47.8417 339.668L263.921 191.362L480.001 43.0565L696.081 191.362L912.16 339.668L830.034 578.871L786.978 704.851ZM692.891 668.97C649.038 720.797 570.101 755.083 480.001 755.083C389.901 755.083 311.762 720.797 267.111 668.97L322.925 621.927C322.925 621.927 329.303 614.751 338.074 621.927C374.752 653.821 424.984 673.754 480.001 673.754C535.018 673.754 585.25 653.821 622.725 621.927C631.496 614.751 637.077 621.927 637.077 621.927L692.891 668.97Z" fill="black"/>
<path fill-rule="evenodd" clip-rule="evenodd" d="M697.676 668.173L677.742 651.429C718.407 633.09 754.287 629.103 786.181 639.469C767.842 649.037 754.287 661.794 745.517 676.146C764.653 680.133 776.613 689.701 782.992 704.851C759.071 701.661 738.341 705.648 720.799 716.013C700.068 729.568 687.311 730.366 680.932 719.203C677.742 712.824 684.121 703.256 699.271 689.701C707.244 683.322 706.447 675.349 697.676 668.173ZM598.806 495.15L500.733 546.18V544.585L598.008 493.555L597.211 491.163L480.799 552.558L480.002 553.356L479.204 552.558L362.792 491.163L361.995 492.758L459.271 544.585V546.18L361.198 494.352L356.414 503.92L460.068 561.329L461.663 562.126L460.068 562.924L397.875 598.007L409.038 609.17L479.204 570.897H480.002H480.799L550.965 609.17L562.128 598.007L499.935 562.924L498.341 562.126L499.935 561.329L603.59 503.92L598.806 495.15ZM498.341 547.774L486.38 554.153L485.583 552.558L498.341 545.382V547.774ZM461.663 545.382L474.42 552.558L473.623 553.356L461.663 547.774V545.382ZM207.311 582.857C203.324 590.831 209.703 594.817 214.487 596.412C216.081 596.412 217.676 598.007 215.284 599.601C212.095 602.791 213.689 611.562 220.068 612.359C228.839 613.156 231.231 605.98 228.839 603.588C226.447 601.196 228.042 599.601 229.636 601.196C232.826 603.588 239.204 603.588 240.799 598.007C242.394 592.425 240.002 590.831 232.826 589.236C228.839 589.236 228.042 584.452 231.231 585.249C237.61 586.844 240.002 586.047 240.799 578.871C241.596 571.695 233.623 570.1 228.839 572.492C226.447 573.289 224.852 574.087 224.852 576.479C224.055 578.871 222.46 579.668 220.068 578.073C213.689 575.681 208.905 578.871 207.311 582.857ZM429.769 238.405C427.377 232.027 420.998 232.027 417.809 233.621C415.417 234.419 413.822 234.419 414.62 232.027C415.417 228.837 409.836 224.053 405.051 227.243C397.875 231.229 400.267 236.811 403.457 236.811C406.646 236.811 406.646 239.203 405.051 239.203C401.065 238.405 397.078 241.595 398.673 245.582C401.065 250.366 403.457 250.366 409.038 247.176C411.43 245.582 414.62 247.974 412.228 249.568C407.444 251.96 405.849 253.555 409.038 258.339C413.025 263.123 419.404 259.934 420.998 256.744C422.593 254.352 422.593 252.758 421.796 251.163C420.998 249.568 420.998 248.771 423.39 247.974C428.972 246.379 430.566 241.595 429.769 238.405ZM404.254 283.057C404.254 276.678 398.673 274.286 393.889 275.083C392.294 275.083 390.699 274.286 392.294 272.691C393.889 269.502 389.902 263.123 384.321 263.92C377.145 265.515 377.145 271.894 380.334 273.489C382.726 274.286 382.726 275.881 380.334 275.083C377.145 274.286 372.36 275.881 372.36 279.867C373.158 284.651 375.55 286.246 381.929 284.651C384.321 284.651 386.713 287.841 384.321 287.841C378.739 288.638 376.347 290.233 378.739 295.017C380.334 301.396 386.713 300.598 389.902 297.409C391.497 295.814 393.091 295.017 392.294 292.625C391.497 291.03 393.091 290.233 395.483 290.233C401.065 291.03 404.254 287.043 404.254 283.057ZM358.806 217.675C351.63 214.485 346.048 219.269 345.251 223.256C345.251 225.648 343.656 226.445 341.264 224.053C338.075 220.864 329.304 221.661 328.507 228.04C327.709 236.013 334.885 238.405 338.075 236.811C340.467 234.419 342.061 235.216 340.467 237.608C338.075 240 338.075 245.582 343.656 247.176C349.238 249.568 351.63 247.176 352.427 240.798C353.224 237.608 358.008 236.811 357.211 240C355.616 245.582 356.414 247.974 363.59 248.771C371.563 250.366 373.158 243.19 370.766 238.405C369.968 236.013 368.374 234.419 366.779 234.419C363.59 233.621 362.792 232.027 364.387 229.635C367.576 224.053 363.59 220.067 358.806 217.675ZM306.181 242.392C299.005 240.798 295.018 246.379 295.018 250.366C295.018 252.758 294.221 254.352 291.829 251.96C288.64 248.771 280.666 251.96 280.666 257.542C281.463 266.312 288.64 267.11 290.234 264.718C292.626 262.326 294.221 263.123 292.626 264.718C291.032 267.907 291.829 273.489 296.613 274.286C302.194 275.083 304.586 273.489 303.789 266.312C303.789 263.123 307.776 261.528 307.776 264.718C307.776 270.299 308.573 272.691 314.952 272.691C322.128 271.894 322.925 264.718 319.736 260.731C318.939 259.136 317.344 257.542 314.952 257.542C312.56 257.542 311.762 255.947 312.56 253.555C314.154 247.974 310.168 243.987 306.181 242.392ZM363.59 301.396C361.995 295.017 355.616 294.219 351.63 295.814C350.035 296.611 348.44 296.611 349.238 294.219C350.832 291.03 345.251 286.246 340.467 288.638C333.291 291.827 334.885 296.611 338.075 297.409C341.264 298.206 341.264 299.801 338.872 299.003C334.885 299.003 330.899 301.396 332.493 305.382C333.291 309.369 336.48 310.166 342.061 307.774C344.453 306.977 347.643 309.369 344.453 310.166C339.669 311.761 338.075 313.356 341.264 318.14C343.656 322.924 350.035 320.532 352.427 317.342C354.022 315.748 354.819 314.153 354.022 312.558C353.224 310.964 354.022 310.166 356.414 309.369C361.995 308.572 363.59 304.585 363.59 301.396ZM258.341 283.854C250.367 283.854 249.57 291.03 250.367 295.017C251.164 296.611 250.367 299.003 247.975 297.409C243.988 295.814 237.61 300.598 240.002 306.977C243.191 314.153 249.57 313.356 251.164 310.166C251.962 306.977 253.556 306.977 253.556 309.369C252.759 312.558 255.151 318.14 259.935 316.545C265.517 315.748 266.314 313.356 263.922 306.977C263.125 303.788 266.314 301.396 267.111 303.788C268.706 309.369 270.301 311.761 276.679 309.369C283.058 306.18 280.666 299.801 277.477 296.611C275.085 295.017 273.49 294.219 271.895 295.017C269.503 295.814 267.909 295.017 267.909 291.827C267.909 285.449 262.327 283.854 258.341 283.854ZM322.128 336.479C320.533 330.1 314.154 330.1 310.168 332.492C308.573 333.289 306.978 333.289 307.776 330.897C308.573 326.91 302.194 322.126 297.41 325.316C291.032 330.1 293.424 336.479 296.613 336.479C299.802 336.479 299.802 338.073 298.208 338.073C294.221 338.073 290.234 342.06 292.626 346.047C294.221 350.831 297.41 350.831 302.194 346.844C304.586 345.249 307.776 347.641 305.384 349.236C301.397 352.425 299.802 354.02 302.992 358.804C306.978 363.588 313.357 360.399 314.952 356.412C315.749 354.02 316.547 352.425 314.952 350.831C314.154 349.236 314.952 347.641 317.344 346.844C322.925 345.249 323.723 340.465 322.128 336.479ZM220.865 336.479C212.892 338.871 212.892 346.047 215.284 350.831C216.879 352.425 216.879 354.02 213.689 354.02C208.905 352.425 203.324 359.601 207.311 365.183C212.095 372.359 219.271 369.967 219.271 365.98C220.068 362.791 221.663 362.791 221.663 365.183C221.663 369.17 225.65 373.954 231.231 371.562C236.015 369.17 236.812 365.98 232.028 359.601C230.434 357.209 232.826 353.223 234.42 356.412C237.61 361.196 240.002 363.588 245.583 358.804C251.962 354.817 247.975 347.641 243.191 345.249C240.799 344.452 239.204 343.655 236.812 345.249C235.218 346.844 233.623 346.047 232.826 342.857C230.434 336.479 224.852 334.884 220.865 336.479ZM297.41 372.359C293.424 366.778 287.045 369.17 284.653 372.359C283.058 373.954 281.463 373.954 281.463 371.562C280.666 367.575 273.49 365.183 269.503 369.967C265.517 376.346 269.503 381.13 272.693 380.332C275.882 379.535 275.882 381.13 274.287 381.927C271.098 382.724 267.909 387.508 271.098 390.698C275.085 394.685 277.477 393.887 281.463 389.103C283.058 386.711 287.045 387.508 284.653 389.9C281.463 393.887 280.666 396.279 285.45 399.469C291.032 403.455 295.816 397.874 295.816 393.887C296.613 391.495 295.816 389.9 295.018 388.306C292.626 387.508 293.424 385.914 295.018 384.319C299.802 381.13 299.802 375.548 297.41 372.359ZM193.756 394.685C186.58 400.266 189.769 407.442 193.756 410.631C195.351 412.226 196.148 413.821 192.958 414.618C188.174 415.415 185.782 424.186 192.161 428.173C199.337 433.754 204.919 428.173 204.121 424.186C203.324 420.997 204.919 420.2 205.716 421.794C207.311 425.781 212.892 428.97 216.879 424.984C220.865 420.2 220.068 417.01 213.689 413.023C211.297 411.429 212.095 406.645 214.487 408.239C220.068 412.226 222.46 413.023 226.447 407.442C230.434 400.266 224.055 395.482 218.473 394.685C216.081 394.685 213.689 394.685 212.892 397.077C211.297 398.671 209.703 398.671 207.311 396.279C203.324 390.698 196.945 392.293 193.756 394.685ZM274.287 414.618C268.706 410.631 263.922 414.618 262.327 418.605C261.53 420.997 259.935 421.794 259.138 419.402C256.746 415.415 249.57 415.415 247.975 420.997C245.583 428.97 251.164 432.16 253.556 429.768C255.949 428.173 257.543 429.768 255.949 431.362C252.759 432.957 251.962 438.538 255.949 440.93C260.733 443.322 262.327 441.728 264.719 435.349C265.517 432.957 269.503 432.16 268.706 435.349C266.314 440.133 266.314 442.525 271.895 444.12C278.274 445.714 280.666 439.336 279.869 435.349C279.869 432.957 279.071 431.362 276.679 430.565C275.085 430.565 274.287 428.97 275.882 426.578C279.869 421.794 277.477 417.01 274.287 414.618ZM274.287 456.877C267.909 452.891 263.125 456.877 260.733 460.864C259.935 462.459 259.138 463.256 257.543 460.864C255.949 457.675 247.975 457.675 245.583 463.256C243.191 470.432 249.57 473.621 251.962 472.027C255.151 470.432 255.949 471.229 254.354 472.824C251.164 475.216 250.367 480 254.354 482.392C259.138 484.784 261.53 483.19 263.922 477.608C264.719 474.419 268.706 474.419 267.909 476.811C265.517 482.392 265.517 484.784 271.895 486.379C278.274 487.974 280.666 481.595 279.869 477.608C279.071 475.216 279.071 473.621 276.679 472.824C275.085 472.027 274.287 470.432 275.882 468.837C279.869 464.053 277.477 459.269 274.287 456.877ZM181.796 459.269C176.214 464.851 180.201 471.229 184.188 473.621C185.782 474.419 186.58 476.013 184.188 477.608C179.404 478.405 178.606 487.176 184.188 490.366C192.161 494.352 196.148 488.771 194.553 484.784C192.958 481.595 194.553 480.798 196.148 483.19C197.743 486.379 203.324 488.771 206.513 483.987C209.703 480 208.905 476.811 202.527 473.621C199.337 472.027 200.135 468.04 202.527 469.635C208.108 472.824 210.5 472.824 212.892 466.445C216.081 460.067 209.703 456.08 204.919 456.08C202.527 456.08 200.135 456.877 199.337 458.472C198.54 460.864 196.945 460.864 194.553 459.269C189.769 454.485 184.985 456.08 181.796 459.269ZM268.706 497.542C260.733 496.744 258.341 503.123 258.341 507.907C258.341 510.299 257.543 511.894 255.151 510.299C251.962 507.11 243.988 511.096 244.786 517.475C246.38 526.246 253.556 527.043 255.151 523.854C257.543 520.665 259.138 521.462 258.341 523.854C256.746 527.043 257.543 532.625 263.125 533.422C268.706 533.422 270.301 531.03 269.503 523.057C268.706 519.867 272.693 518.273 272.693 521.462C273.49 527.043 275.085 530.233 281.463 528.638C288.64 527.043 287.842 519.07 284.653 515.083C283.058 513.489 281.463 511.894 279.869 512.691C277.477 512.691 275.882 511.894 276.679 508.704C277.477 502.326 273.49 498.339 268.706 497.542ZM188.174 526.246C183.39 533.422 188.174 539.003 192.958 540.598C195.351 541.396 196.945 542.99 193.756 544.585C189.769 546.977 189.769 556.545 196.148 558.14C205.716 561.329 209.703 554.153 207.311 550.964C204.919 547.774 206.513 546.18 208.108 548.572C211.297 551.761 217.676 552.558 220.068 547.774C222.46 542.193 220.865 539.801 213.689 537.409C209.703 536.611 209.703 531.827 212.892 532.625C219.271 535.017 222.46 535.017 224.055 527.841C225.65 520.665 217.676 517.475 212.892 518.273C209.703 519.07 208.108 519.867 207.311 522.259C206.513 524.651 204.919 525.449 202.527 523.854C196.148 519.867 190.566 522.259 188.174 526.246ZM291.032 551.761C283.855 550.964 280.666 556.545 281.463 561.329C281.463 562.924 280.666 564.518 278.274 562.924C275.085 560.532 268.706 563.721 269.503 569.302C270.301 577.276 276.679 578.073 278.274 574.884C279.869 572.492 282.261 573.289 280.666 574.884C279.869 578.073 280.666 583.655 285.45 583.655C291.032 583.655 291.829 581.263 291.032 574.884C291.032 571.695 294.221 570.1 294.221 572.492C295.018 578.073 295.816 580.465 302.194 579.668C308.573 578.073 307.776 570.897 305.384 567.708C303.789 566.113 302.194 564.518 300.6 565.316C298.208 565.316 297.41 564.518 297.41 561.329C299.005 555.748 294.221 552.558 291.032 551.761ZM262.327 668.173L282.261 651.429C241.596 633.09 205.716 629.103 173.822 639.469C192.161 649.037 205.716 661.794 214.487 676.146C195.351 680.133 183.39 689.701 177.012 704.851C200.932 701.661 221.663 705.648 239.204 716.013C259.935 729.568 272.693 730.366 279.071 719.203C282.261 712.824 275.882 703.256 260.733 689.701C252.759 683.322 253.556 675.349 262.327 668.173ZM692.892 668.97C649.038 720.797 570.101 755.083 480.002 755.083C389.902 755.083 310.965 720.797 267.111 668.97L322.925 621.927C322.925 621.927 328.507 614.751 337.277 621.927C374.752 653.821 424.985 673.754 480.002 673.754C535.018 673.754 585.251 653.821 622.726 621.927C631.497 614.751 637.078 621.927 637.078 621.927L692.892 668.97Z" fill="#FEFEFE"/>
<path fill-rule="evenodd" clip-rule="evenodd" d="M359.602 467.243C407.442 467.243 445.715 487.974 480 518.273V397.874C454.485 380.332 425.781 369.17 394.685 367.575L359.602 467.243Z" fill="#F1B918"/>
<path fill-rule="evenodd" clip-rule="evenodd" d="M600.4 467.243C553.356 467.243 515.084 487.974 480.001 518.273V397.874C506.313 380.332 534.22 369.17 565.317 367.575L600.4 467.243Z" fill="url(#paint0_linear_4104_11285)"/>
<path fill-rule="evenodd" clip-rule="evenodd" d="M359.602 467.242L361.994 489.568C408.239 493.555 443.322 510.299 465.648 539.003H495.15C517.475 510.299 551.761 493.555 598.804 489.568L600.399 467.242C553.356 467.242 515.083 487.973 480 518.272C445.715 487.973 407.442 467.242 359.602 467.242Z" fill="#D89F07"/>
<path fill-rule="evenodd" clip-rule="evenodd" d="M422.592 398.671C420.997 397.874 420.2 398.671 418.605 400.266C419.402 399.469 419.402 399.469 420.2 399.469C420.997 399.469 421.794 399.469 421.794 400.266C422.592 401.063 424.186 401.063 425.781 401.063C427.376 400.266 427.376 401.063 427.376 401.861C428.173 403.455 430.565 404.253 432.957 403.455C433.755 402.658 435.349 403.455 435.349 404.253C436.147 405.847 437.741 406.645 440.133 406.645C440.931 406.645 441.728 407.442 441.728 408.239C443.323 409.834 444.917 409.834 448.107 409.834C449.701 409.037 451.296 409.834 452.093 412.226C453.688 413.821 456.08 413.821 458.472 413.023C455.283 412.226 453.688 411.429 452.891 409.834C451.296 408.239 449.701 407.442 447.309 408.239C444.917 409.037 443.323 407.442 442.525 405.847C441.728 404.253 440.133 404.253 437.741 404.253C436.944 404.253 436.147 403.455 436.147 402.658C435.349 401.063 433.755 401.063 430.565 401.063C429.768 401.861 428.97 401.063 428.173 400.266C427.376 398.671 425.781 398.671 424.186 400.266C423.389 400.266 423.389 399.469 422.592 398.671ZM413.024 428.173C412.226 427.376 410.632 428.173 409.037 429.768C409.834 428.97 410.632 428.97 410.632 428.97C411.429 428.97 412.226 428.97 413.024 429.768C413.821 431.362 414.618 430.565 416.213 430.565C417.808 429.768 418.605 430.565 418.605 432.16C419.402 433.754 421.794 433.754 424.186 432.957C425.781 432.957 426.578 432.957 427.376 434.552C427.376 436.146 428.97 436.944 432.16 436.146C432.957 436.146 432.957 436.944 433.755 437.741C435.349 439.336 436.944 440.133 440.133 439.336C442.525 438.538 443.323 440.133 444.917 441.728C445.715 444.12 448.107 444.12 451.296 442.525C448.107 442.525 445.715 441.728 444.917 440.133C443.323 437.741 442.525 436.944 439.336 437.741C436.944 438.538 435.349 437.741 434.552 435.349C433.755 433.754 431.363 433.754 428.97 433.754C428.173 433.754 428.173 432.957 427.376 432.16C426.578 430.565 424.984 430.565 421.794 430.565C420.2 431.362 420.2 430.565 419.402 429.768C418.605 428.173 417.01 428.173 415.416 429.768C414.618 429.768 413.821 428.97 413.024 428.173ZM407.442 442.525C405.848 441.728 404.253 442.525 402.658 444.12C403.456 443.322 404.253 443.322 404.253 443.322C405.848 443.322 405.848 443.322 406.645 444.12C407.442 444.917 409.037 444.917 410.632 444.917C413.024 444.12 413.024 444.917 413.821 445.714C414.618 447.309 417.01 447.309 419.402 446.512C420.997 446.512 422.592 447.309 422.592 448.106C424.186 449.701 425.781 450.498 428.97 450.498C429.768 450.498 429.768 450.498 430.565 451.296C432.16 453.688 434.552 453.688 437.741 452.89C440.133 452.093 441.728 453.688 443.323 455.282C444.917 456.877 447.309 456.877 450.499 456.08C447.309 456.08 444.12 455.282 443.323 453.688C441.728 451.296 440.133 450.498 436.944 451.296C434.552 452.093 432.957 451.296 431.363 448.904C430.565 447.309 428.173 447.309 424.984 447.309C424.186 447.309 423.389 446.512 423.389 445.714C422.592 444.12 420.2 444.12 417.01 444.917C415.416 444.917 414.618 444.917 414.618 443.322C413.024 442.525 411.429 442.525 409.037 443.322C408.24 444.12 408.24 443.322 407.442 442.525ZM418.605 413.023C417.808 412.226 416.213 413.023 414.618 414.618C415.416 413.821 416.213 413.821 416.213 413.821C417.01 413.821 417.808 413.821 417.808 414.618C418.605 415.415 420.2 415.415 421.794 415.415C423.389 414.618 423.389 415.415 424.186 416.213C424.186 417.807 426.578 417.807 428.97 417.807C429.768 417.01 431.363 417.807 431.363 418.605C432.16 420.199 433.755 420.997 436.147 420.997C436.944 420.997 437.741 421.794 437.741 421.794C439.336 424.186 440.931 424.186 444.12 423.389C445.715 423.389 447.309 424.186 448.904 425.781C449.701 428.173 452.093 428.173 454.485 427.376C452.093 426.578 449.701 425.781 448.904 424.186C447.309 422.591 446.512 421.794 443.323 422.591C440.931 423.389 439.336 421.794 438.539 420.199C437.741 418.605 436.147 417.807 433.755 418.605C432.957 418.605 432.16 417.807 432.16 417.01C431.363 415.415 429.768 414.618 426.578 415.415C425.781 416.213 424.984 415.415 424.186 414.618C423.389 413.023 421.794 413.023 420.2 413.821C419.402 414.618 419.402 413.821 418.605 413.023Z" fill="black"/>
<path fill-rule="evenodd" clip-rule="evenodd" d="M538.207 398.671C539.004 397.874 540.599 398.671 541.396 400.266C541.396 399.469 540.599 399.469 539.802 399.469C539.004 399.469 539.004 399.469 538.207 400.266C537.41 401.063 536.612 401.063 535.018 401.063C533.423 400.266 532.626 401.063 532.626 401.861C531.828 403.455 530.234 404.253 527.842 403.455C526.247 402.658 525.45 403.455 524.652 404.253C523.855 405.847 522.26 406.645 519.868 406.645C519.071 406.645 519.071 407.442 518.273 408.239C517.476 409.834 515.084 409.834 512.692 409.834C510.3 409.037 508.705 409.834 507.908 412.226C507.111 413.821 504.719 413.821 501.529 413.023C504.719 412.226 507.111 411.429 507.908 409.834C508.705 408.239 510.3 407.442 513.489 408.239C515.084 409.037 516.679 407.442 518.273 405.847C518.273 404.253 520.666 404.253 523.058 404.253C523.855 404.253 523.855 403.455 524.652 402.658C525.45 401.063 527.044 401.063 529.436 401.063C531.031 401.861 531.828 401.063 531.828 400.266C532.626 398.671 534.22 398.671 535.815 400.266C536.612 400.266 537.41 399.469 538.207 398.671ZM546.978 428.173C548.572 427.376 550.167 428.173 550.965 429.768C550.167 428.97 550.167 428.97 549.37 428.97C548.572 428.97 548.572 428.97 547.775 429.768C546.978 431.362 545.383 430.565 543.788 430.565C542.194 429.768 542.194 430.565 541.396 432.16C541.396 433.754 539.004 433.754 536.612 432.957C535.018 432.957 534.22 432.957 533.423 434.552C532.626 436.146 531.031 436.944 528.639 436.146C527.842 436.146 527.044 436.944 527.044 437.741C525.45 439.336 523.058 440.133 520.666 439.336C518.273 438.538 516.679 440.133 515.881 441.728C514.287 444.12 511.895 444.12 509.503 442.525C512.692 442.525 515.084 441.728 515.881 440.133C516.679 437.741 518.273 436.944 521.463 437.741C523.058 438.538 524.652 437.741 526.247 435.349C527.044 433.754 528.639 433.754 531.031 433.754C532.626 433.754 532.626 432.957 533.423 432.16C533.423 430.565 535.815 430.565 539.004 430.565C539.802 431.362 540.599 430.565 540.599 429.768C542.194 428.173 543.788 428.173 545.383 429.768C546.18 429.768 546.18 428.97 546.978 428.173ZM553.357 442.525C554.951 441.728 556.546 442.525 557.343 444.12C557.343 443.322 556.546 443.322 555.749 443.322C554.951 443.322 554.154 443.322 554.154 444.12C552.559 444.917 551.762 444.917 549.37 444.917C547.775 444.12 546.978 444.917 546.978 445.714C546.18 447.309 543.788 447.309 541.396 446.512C539.004 446.512 538.207 447.309 537.41 448.106C536.612 449.701 535.018 450.498 531.828 450.498C531.031 450.498 530.234 450.498 529.436 451.296C527.842 453.688 525.45 453.688 522.26 452.89C519.868 452.093 518.273 453.688 516.679 455.282C515.881 456.877 512.692 456.877 509.503 456.08C513.489 456.08 515.881 455.282 516.679 453.688C518.273 451.296 519.868 450.498 523.058 451.296C526.247 452.093 527.842 451.296 529.436 448.904C530.234 447.309 531.828 447.309 535.018 447.309C536.612 447.309 536.612 446.512 537.41 445.714C538.207 444.12 540.599 444.12 543.788 444.917C544.586 444.917 545.383 444.917 546.18 443.322C546.978 442.525 549.37 442.525 550.965 443.322C551.762 444.12 552.559 443.322 553.357 442.525ZM541.396 413.023C542.991 412.226 544.586 413.023 545.383 414.618C545.383 413.821 544.586 413.821 543.788 413.821C542.991 413.821 542.991 413.821 542.194 414.618C541.396 415.415 540.599 415.415 539.004 415.415C537.41 414.618 536.612 415.415 536.612 416.213C535.815 417.807 534.22 417.807 531.828 417.807C530.234 417.01 529.436 417.807 528.639 418.605C527.842 420.199 526.247 420.997 523.855 420.997C523.058 420.997 523.058 421.794 522.26 421.794C521.463 424.186 519.071 424.186 516.679 423.389C514.287 423.389 512.692 424.186 511.895 425.781C511.097 428.173 508.705 428.173 505.516 427.376C508.705 426.578 511.097 425.781 511.895 424.186C512.692 422.591 514.287 421.794 516.679 422.591C519.071 423.389 520.666 421.794 521.463 420.199C522.26 418.605 524.652 417.807 527.044 418.605C527.842 418.605 527.842 417.807 528.639 417.01C529.436 415.415 531.031 414.618 533.423 415.415C535.018 416.213 535.815 415.415 535.815 414.618C536.612 413.023 538.207 413.023 539.802 413.821C540.599 414.618 541.396 413.821 541.396 413.023Z" fill="black"/>
<path d="M397.077 455.283C409.835 456.877 420.998 459.269 432.161 463.256C442.526 467.243 452.094 472.824 461.662 479.203L465.649 408.239C458.473 403.455 450.499 398.671 443.323 395.482C435.35 391.495 426.579 389.103 417.808 388.306H417.011C415.416 388.306 412.227 387.508 411.43 389.9L393.888 444.917C393.888 446.512 393.091 448.106 393.091 448.904C393.091 450.498 393.091 452.093 393.888 453.688C393.888 454.485 394.685 455.283 396.28 455.283C396.28 455.283 396.28 455.283 397.077 455.283ZM431.363 464.851C420.998 460.864 409.835 457.675 397.077 456.877C396.28 456.877 396.28 456.877 395.483 456.877C393.888 456.08 393.091 455.283 392.293 453.688C391.496 452.89 391.496 451.296 391.496 448.904C392.293 447.309 392.293 445.714 393.091 444.12L409.835 389.9C411.43 385.914 414.619 386.711 417.808 386.711C427.376 387.508 435.35 390.698 443.323 393.887C451.297 397.874 459.27 402.658 466.446 407.442H467.244V408.239L463.257 480V481.595L461.662 480.797C452.094 474.419 442.526 468.837 431.363 464.851Z" fill="#B78E00"/>
<path d="M563.721 455.283C550.963 456.877 539.003 459.269 528.638 463.256C517.475 467.243 507.907 472.824 499.136 479.203L495.149 408.239C502.325 403.455 509.502 398.671 517.475 395.482C525.448 391.495 533.422 389.103 542.193 388.306H542.99C545.382 388.306 548.571 387.508 549.369 389.9L566.113 444.917C566.91 446.512 566.91 448.106 566.91 448.904C567.708 450.498 566.91 452.093 566.91 453.688C566.113 454.485 565.315 455.283 564.518 455.283H563.721ZM528.638 464.851C539.801 460.864 550.963 457.675 563.721 456.877H564.518C566.113 456.08 567.708 455.283 567.708 453.688C568.505 452.89 568.505 451.296 568.505 448.904C568.505 447.309 568.505 445.714 567.708 444.12L550.166 389.9C549.369 385.914 545.382 386.711 542.99 386.711H542.193C533.422 387.508 524.651 390.698 516.678 393.887C508.704 397.874 501.528 402.658 493.555 407.442V408.239L497.541 480V481.595L498.339 480.797C507.907 474.419 518.272 468.837 528.638 464.851Z" fill="#B78E00"/>
<path fill-rule="evenodd" clip-rule="evenodd" d="M299.802 677.741L290.234 670.565L316.547 636.279L325.317 643.455L299.802 677.741ZM361.995 468.837L363.59 487.974C386.713 489.568 406.646 495.15 423.391 503.123C440.932 511.097 455.284 523.057 466.447 537.409H494.354C505.517 523.057 519.869 511.097 536.613 503.123C554.155 495.15 574.088 489.568 597.211 487.974L598.806 468.837C575.683 468.837 554.952 474.419 535.816 483.19C516.68 491.96 498.341 504.718 481.596 519.07L480.002 520.665L479.204 519.07C461.663 504.718 444.121 491.96 424.188 483.19C405.052 474.419 384.321 468.837 361.995 468.837ZM410.633 535.814L354.819 504.718L354.022 503.92V503.123L361.198 489.568H361.995L359.603 467.243L394.686 367.575C425.783 369.17 454.487 380.332 480.002 397.874C506.314 380.332 534.221 369.17 565.317 367.575L600.4 467.243L598.806 489.568L605.982 503.123V503.92L605.185 504.718L549.371 535.814L564.52 597.21L563.723 598.007L551.763 610.764V611.562H550.965L480.002 573.289L409.038 611.562H408.241V610.764L396.281 598.007L395.484 597.21L410.633 535.814ZM478.407 399.469L477.61 398.671C465.65 390.698 452.892 383.522 439.337 378.738C424.985 373.954 411.43 370.764 396.281 369.17L361.995 465.648V467.243C408.241 467.243 445.716 487.974 479.204 517.475V399.469H478.407ZM598.806 467.243L598.008 465.648L564.52 369.17C549.371 370.764 535.018 373.954 521.464 378.738C507.909 383.522 495.151 390.698 482.394 398.671L481.596 399.469H480.799V517.475C515.085 487.974 552.56 467.243 598.806 467.243ZM598.806 495.15L500.733 546.18V544.585L598.008 493.555L597.211 491.163L480.799 552.558L480.002 553.356L479.204 552.558L362.793 491.163L361.995 492.758L459.271 544.585V546.18L361.198 494.352L356.414 503.92L460.068 561.329L461.663 562.126L460.068 562.924L397.876 598.007L409.038 609.17L479.204 570.897H480.002H480.799L550.965 609.17L562.128 598.007L499.935 562.924L498.341 562.126L499.935 561.329L603.59 503.92L598.806 495.15ZM498.341 547.774L486.381 554.153L485.583 552.558L498.341 545.382V547.774ZM461.663 545.382L474.42 552.558L473.623 553.356L461.663 547.774V545.382ZM326.912 695.283L316.547 688.904L320.533 672.957L312.56 686.512L302.195 680.133L325.317 644.253L334.886 650.631L327.709 662.592L339.67 653.023L348.44 658.605L332.494 671.362L326.912 695.283ZM355.616 710.432L345.251 704.851L354.022 686.512L351.63 684.917L342.062 703.256L331.696 698.472L350.832 660.2L361.198 664.984L354.022 680.93L356.414 681.728L364.387 666.578L374.753 672.16L355.616 710.432ZM382.726 720.798L361.995 712.824L377.145 672.957L388.307 676.944L374.753 712.027L384.321 715.216L382.726 720.798ZM415.417 729.568L404.254 726.379L405.052 715.216L400.268 713.621L395.484 724.784L384.321 721.595L402.66 682.525L417.012 685.714L415.417 729.568ZM405.849 708.837L407.444 696.08L402.66 708.04L405.849 708.837ZM420.998 713.621L431.364 714.419L430.567 724.784C429.769 725.582 430.567 726.379 432.161 726.379C433.756 726.379 434.553 726.379 434.553 724.784L435.351 720C435.351 718.406 434.553 716.811 432.161 714.419C427.377 709.635 424.985 706.445 424.188 704.851C422.593 704.053 422.593 702.459 422.593 700.864L423.391 696.08C424.188 690.499 428.972 688.107 437.743 689.701C445.716 690.499 449.703 693.688 448.905 698.472L448.108 705.648L437.743 704.851L438.54 696.877C438.54 696.08 437.743 695.283 436.945 695.283C435.351 695.283 434.553 696.08 434.553 697.675V700.067C433.756 701.661 435.351 704.053 437.743 706.445C441.729 710.432 444.121 713.621 445.716 715.216C446.513 716.811 447.311 718.406 446.513 720.798L445.716 725.582C445.716 731.163 440.135 733.555 431.364 731.96C422.593 731.163 418.606 727.974 419.404 723.19L420.998 713.621ZM460.866 735.15L462.46 692.093L476.015 692.891C479.204 692.891 482.394 693.688 484.786 695.283C487.178 696.08 487.975 698.472 487.975 700.864V706.445C487.975 709.635 485.583 712.027 480.799 712.824C485.583 713.621 487.975 716.013 487.975 719.203L487.178 727.176C487.178 730.366 486.381 731.96 483.989 733.555C481.596 735.15 478.407 735.15 475.218 735.15H460.866ZM476.812 708.04V700.864C476.812 699.269 476.015 698.472 473.623 698.472V709.635C475.218 709.635 476.812 709.635 476.812 708.04ZM476.015 727.974V716.811C476.812 715.216 475.218 714.419 472.826 714.419V729.568C475.218 729.568 476.015 728.771 476.015 727.974ZM513.49 732.758L491.165 735.15L487.178 692.093L510.301 690.499V696.08L499.138 696.877L500.733 708.04L510.301 707.243V712.824L500.733 713.621L502.327 728.771L512.693 727.176L513.49 732.758ZM547.776 726.379L536.613 728.771C535.018 727.974 533.424 724.784 532.626 719.203L531.829 716.013C531.032 712.824 531.032 711.229 531.032 711.229C531.032 709.635 529.437 708.837 527.045 709.635L531.032 729.568L519.869 731.96L511.098 690.499L525.45 687.309C528.64 686.512 531.032 686.512 534.221 687.309C536.613 688.107 538.208 689.701 539.005 692.093L539.802 697.675C540.6 700.864 538.208 703.256 534.221 705.648C539.005 704.851 541.397 707.243 542.194 710.432L542.992 715.216C544.587 722.392 546.181 725.582 547.776 726.379ZM528.64 701.661L527.842 694.485C527.045 693.688 526.248 692.891 523.856 693.688L526.248 704.851C528.64 704.053 529.437 703.256 528.64 701.661ZM580.467 716.013L569.304 719.203L564.52 708.837L558.939 710.432L560.533 722.392L549.371 725.582L545.384 682.525L559.736 677.741L580.467 716.013ZM561.331 704.053L556.547 692.093L558.141 704.851L561.331 704.053ZM620.334 696.877L610.766 701.661L600.4 680.133L605.185 704.053L598.008 708.04L581.264 689.701L591.63 711.229L583.656 715.216L564.52 676.944L578.075 669.768L592.427 687.309L587.643 665.781L601.198 658.605L620.334 696.877ZM649.836 678.538L640.268 684.12L632.294 675.349L627.51 678.538L632.294 688.904L621.929 695.283L607.577 654.618L620.334 646.645L649.836 678.538ZM628.307 671.362L620.334 660.997L625.915 672.957L628.307 671.362ZM668.972 662.592L652.228 675.349L625.915 641.861L634.686 634.685L657.809 664.186L665.783 657.807L668.972 662.592Z" fill="black"/>
<defs>
<linearGradient id="paint0_linear_4104_11285" x1="479.205" y1="429.866" x2="601.639" y2="455.889" gradientUnits="userSpaceOnUse">
<stop stop-color="#ECA400"/>
<stop offset="0.231373" stop-color="#EDA804"/>
<stop offset="0.34902" stop-color="#F3C627"/>
<stop offset="0.419608" stop-color="#ECA400"/>
<stop offset="0.478431" stop-color="#F5CD2E"/>
<stop offset="0.74902" stop-color="#F4C728"/>
<stop offset="0.901961" stop-color="#EDA704"/>
<stop offset="1" stop-color="#ECA400"/>
</linearGradient>
</defs>
</svg>
